<svg width="512" height="512" viewBox="0 0 256 256" fill="none" xmlns="http://www.w3.org/2000/svg" role="img" aria-labelledby="title desc">
  <title id="title">sayit logo</title>
  <desc id="desc">A bold speech bubble with quotation marks, representing clearer short-form communication.</desc>
  <defs>
    <linearGradient id="bg" x1="40" y1="36" x2="214" y2="218" gradientUnits="userSpaceOnUse">
      <stop stop-color="#FF7A59"/>
      <stop offset="1" stop-color="#FF4D6D"/>
    </linearGradient>
  </defs>

  <path
    d="M48 78C48 51.49 69.49 30 96 30H160C186.51 30 208 51.49 208 78V126C208 152.51 186.51 174 160 174H123.5L94.5 202.021C87.974 208.325 77 203.701 77 194.627V174H96C69.49 174 48 152.51 48 126V78Z"
    fill="url(#bg)"
  />

  <g fill="white">
    <path d="M88 93C88 83.059 96.059 75 106 75H108V91C108 100.941 99.941 109 90 109H88V93Z"/>
    <path d="M90 109H108V124C108 136.15 98.15 146 86 146H82V130C82 118.402 91.402 109 103 109H90Z"/>
    <path d="M126 93C126 83.059 134.059 75 144 75H146V91C146 100.941 137.941 109 128 109H126V93Z"/>
    <path d="M128 109H146V124C146 136.15 136.15 146 124 146H120V130C120 118.402 129.402 109 141 109H128Z"/>
  </g>

  <circle cx="180" cy="72" r="10" fill="#111827" fill-opacity="0.16"/>
</svg>
