<svg width="512" height="512" viewBox="0 0 256 256" fill="none" xmlns="http://www.w3.org/2000/svg" role="img" aria-labelledby="title desc">
  <title id="title">sayit logo</title>
  <desc id="desc">A speech bubble with quote marks and a directional stroke, representing clearer and more sendable wording.</desc>
  <defs>
    <linearGradient id="bubbleStroke" x1="44" y1="38" x2="210" y2="194" gradientUnits="userSpaceOnUse">
      <stop stop-color="#0EA5E9"/>
      <stop offset="0.52" stop-color="#22C55E"/>
      <stop offset="1" stop-color="#14B8A6"/>
    </linearGradient>
    <linearGradient id="bubbleFill" x1="56" y1="46" x2="196" y2="172" gradientUnits="userSpaceOnUse">
      <stop stop-color="#0EA5E9" stop-opacity="0.16"/>
      <stop offset="1" stop-color="#22C55E" stop-opacity="0.08"/>
    </linearGradient>
    <linearGradient id="quoteFill" x1="78" y1="74" x2="145" y2="150" gradientUnits="userSpaceOnUse">
      <stop stop-color="#FBBF24"/>
      <stop offset="1" stop-color="#F97316"/>
    </linearGradient>
    <linearGradient id="swoosh" x1="80" y1="176" x2="204" y2="112" gradientUnits="userSpaceOnUse">
      <stop stop-color="#22C55E"/>
      <stop offset="1" stop-color="#0EA5E9"/>
    </linearGradient>
    <linearGradient id="spark" x1="174" y1="66" x2="202" y2="96" gradientUnits="userSpaceOnUse">
      <stop stop-color="#FB7185"/>
      <stop offset="1" stop-color="#F59E0B"/>
    </linearGradient>
  </defs>

  <path
    d="M54 60C54 46.745 64.745 36 78 36H178C191.255 36 202 46.745 202 60V126C202 139.255 191.255 150 178 150H124.6L94.08 174.972C88.849 179.252 81 175.53 81 168.771V150H78C64.745 150 54 139.255 54 126V60Z"
    fill="url(#bubbleFill)"
    stroke="url(#bubbleStroke)"
    stroke-width="12"
    stroke-linejoin="round"
  />

  <g fill="url(#quoteFill)">
    <circle cx="91" cy="90" r="10"/>
    <rect x="81" y="98" width="20" height="34" rx="10"/>
    <rect x="78" y="125" width="15" height="30" rx="7.5" transform="rotate(18 78 125)"/>

    <circle cx="131" cy="90" r="10"/>
    <rect x="121" y="98" width="20" height="34" rx="10"/>
    <rect x="118" y="125" width="15" height="30" rx="7.5" transform="rotate(18 118 125)"/>
  </g>

  <path
    d="M86 170C105 182 133 185 158 177C175 171 189 161 199 146"
    stroke="url(#swoosh)"
    stroke-width="12"
    stroke-linecap="round"
  />
  <path
    d="M186 144L201 144L196 158"
    stroke="url(#swoosh)"
    stroke-width="12"
    stroke-linecap="round"
    stroke-linejoin="round"
  />

  <path
    d="M188 62L192.222 73.778L204 78L192.222 82.222L188 94L183.778 82.222L172 78L183.778 73.778L188 62Z"
    fill="url(#spark)"
  />
</svg>
