<svg width="1120" height="360" viewBox="0 0 1120 360" fill="none" xmlns="http://www.w3.org/2000/svg" role="img" aria-labelledby="title desc">
  <title id="title">sayit wordmark</title>
  <desc id="desc">The sayit logo with a large speech bubble icon and the project name, optimized for dark backgrounds.</desc>
  <defs>
    <linearGradient id="bubble" x1="52" y1="28" x2="374" y2="328" gradientUnits="userSpaceOnUse">
      <stop stop-color="#FF7A59"/>
      <stop offset="1" stop-color="#FF4D6D"/>
    </linearGradient>
    <linearGradient id="text" x1="420" y1="96" x2="920" y2="272" gradientUnits="userSpaceOnUse">
      <stop stop-color="#FFF7ED"/>
      <stop offset="1" stop-color="#FDBA74"/>
    </linearGradient>
  </defs>

  <g transform="translate(-32 -32) scale(1.31)">
    <path
      d="M60 112C60 72.235 92.235 40 132 40H228C267.765 40 300 72.235 300 112V184C300 223.765 267.765 256 228 256H173.5L129 299.018C119.663 308.047 104 301.432 104 288.444V256H132C92.235 256 60 223.765 60 184V112Z"
      fill="url(#bubble)"
    />

    <g fill="white">
      <path d="M126 138C126 123.641 137.641 112 152 112H157V135C157 149.359 145.359 161 131 161H126V138Z"/>
      <path d="M130 161H157V182C157 199.121 143.121 213 126 213H119V192C119 174.879 132.879 161 150 161H130Z"/>
      <path d="M182 138C182 123.641 193.641 112 208 112H213V135C213 149.359 201.359 161 187 161H182V138Z"/>
      <path d="M186 161H213V182C213 199.121 199.121 213 182 213H175V192C175 174.879 188.879 161 206 161H186Z"/>
    </g>

    <circle cx="260" cy="98" r="14" fill="#FFF7ED" fill-opacity="0.2"/>
  </g>

  <g
    transform="translate(404 86) skewX(-8)"
    stroke="url(#text)"
    stroke-width="18"
    stroke-linecap="round"
    stroke-linejoin="round"
    fill="none"
  >
    <path d="M116 84C103 70 79 64 57 67C36 70 22 84 22 101C22 121 41 128 70 133C97 137 112 144 112 159C112 178 93 190 67 190C45 190 27 183 16 170"/>
    <path d="M162 124C162 88 184 64 214 64C243 64 265 89 265 123C265 156 243 180 214 180C184 180 162 156 162 124Z"/>
    <path d="M265 103V178"/>
    <path d="M308 66V136C308 162 326 178 349 178C377 178 396 154 396 121V66"/>
    <path d="M396 121C396 193 368 227 316 227"/>
    <path d="M451 88V176"/>
    <path d="M451 54V54.5"/>
    <path d="M498 40V176"/>
    <path d="M470 89H532"/>
  </g>
</svg>
