<svg width="960" height="360" viewBox="0 0 960 360" fill="none" xmlns="http://www.w3.org/2000/svg" role="img" aria-labelledby="title desc">
  <title id="title">sayit wordmark logo</title>
  <desc id="desc">The sayit logo with a speech bubble icon and the project name underneath.</desc>
  <defs>
    <linearGradient id="bubbleStroke" x1="158" y1="42" x2="324" y2="198" gradientUnits="userSpaceOnUse">
      <stop stop-color="#0EA5E9"/>
      <stop offset="0.52" stop-color="#22C55E"/>
      <stop offset="1" stop-color="#14B8A6"/>
    </linearGradient>
    <linearGradient id="bubbleFill" x1="170" y1="50" x2="310" y2="176" gradientUnits="userSpaceOnUse">
      <stop stop-color="#0EA5E9" stop-opacity="0.16"/>
      <stop offset="1" stop-color="#22C55E" stop-opacity="0.08"/>
    </linearGradient>
    <linearGradient id="quoteFill" x1="192" y1="78" x2="259" y2="154" gradientUnits="userSpaceOnUse">
      <stop stop-color="#FBBF24"/>
      <stop offset="1" stop-color="#F97316"/>
    </linearGradient>
    <linearGradient id="swoosh" x1="194" y1="180" x2="318" y2="116" gradientUnits="userSpaceOnUse">
      <stop stop-color="#22C55E"/>
      <stop offset="1" stop-color="#0EA5E9"/>
    </linearGradient>
    <linearGradient id="spark" x1="282" y1="70" x2="310" y2="100" gradientUnits="userSpaceOnUse">
      <stop stop-color="#FB7185"/>
      <stop offset="1" stop-color="#F59E0B"/>
    </linearGradient>
    <linearGradient id="wordmark" x1="304" y1="252" x2="640" y2="336" gradientUnits="userSpaceOnUse">
      <stop stop-color="#0F172A"/>
      <stop offset="1" stop-color="#334155"/>
    </linearGradient>
  </defs>

  <path
    d="M154 64C154 50.745 164.745 40 178 40H278C291.255 40 302 50.745 302 64V130C302 143.255 291.255 154 278 154H224.6L194.08 178.972C188.849 183.252 181 179.53 181 172.771V154H178C164.745 154 154 143.255 154 130V64Z"
    fill="url(#bubbleFill)"
    stroke="url(#bubbleStroke)"
    stroke-width="12"
    stroke-linejoin="round"
  />

  <g fill="url(#quoteFill)">
    <circle cx="191" cy="94" r="10"/>
    <rect x="181" y="102" width="20" height="34" rx="10"/>
    <rect x="178" y="129" width="15" height="30" rx="7.5" transform="rotate(18 178 129)"/>

    <circle cx="231" cy="94" r="10"/>
    <rect x="221" y="102" width="20" height="34" rx="10"/>
    <rect x="218" y="129" width="15" height="30" rx="7.5" transform="rotate(18 218 129)"/>
  </g>

  <path
    d="M186 174C205 186 233 189 258 181C275 175 289 165 299 150"
    stroke="url(#swoosh)"
    stroke-width="12"
    stroke-linecap="round"
  />
  <path
    d="M286 148L301 148L296 162"
    stroke="url(#swoosh)"
    stroke-width="12"
    stroke-linecap="round"
    stroke-linejoin="round"
  />

  <path
    d="M288 66L292.222 77.778L304 82L292.222 86.222L288 98L283.778 86.222L272 82L283.778 77.778L288 66Z"
    fill="url(#spark)"
  />

  <text
    x="480"
    y="292"
    text-anchor="middle"
    fill="url(#wordmark)"
    font-size="92"
    font-weight="800"
    letter-spacing="-2"
    font-family="ui-sans-serif, -apple-system, BlinkMacSystemFont, 'Segoe UI', sans-serif"
  >
    sayit
  </text>
</svg>
